<?xml version="1.0" encoding="UTF-8" standalone="no"?>
<!-- Created by Cary Bass http://commons.wikimedia.com/wiki/User:Bastique ; Color scheme: enwiki (2014-10-01) -->
<svg xmlns:dc="http://purl.org/dc/elements/1.1/" xmlns:cc="http://creativecommons.org/ns#" xmlns:rdf="http://www.w3.org/1999/02/22-rdf-syntax-ns#" xmlns:svg="http://www.w3.org/2000/svg" xmlns="http://www.w3.org/2000/svg" xmlns:xlink="http://www.w3.org/1999/xlink" xmlns:sodipodi="http://sodipodi.sourceforge.net/DTD/sodipodi-0.dtd" xmlns:inkscape="http://www.inkscape.org/namespaces/inkscape" width="904" height="278" id="svg8183" version="1.1" inkscape:version="0.48.2 r9819" sodipodi:docname="Periodic Table overview (32 columns).svg">
  <metadata id="metadata8319">
    <rdf:RDF>
      <cc:Work rdf:about="">
        <dc:format>image/svg+xml</dc:format>
        <dc:type rdf:resource="http://purl.org/dc/dcmitype/StillImage"/>
        <dc:title/>
      </cc:Work>
    </rdf:RDF>
  </metadata>
  <sodipodi:namedview pagecolor="#ffffff" bordercolor="#666666" borderopacity="1" objecttolerance="10" gridtolerance="10" guidetolerance="10" inkscape:pageopacity="0" inkscape:pageshadow="2" inkscape:window-width="1024" inkscape:window-height="719" id="namedview8317" showgrid="false" inkscape:zoom="0.99111111" inkscape:cx="754.2689" inkscape:cy="138" inkscape:window-x="-4" inkscape:window-y="-4" inkscape:window-maximized="1" inkscape:current-layer="svg8183" fit-margin-top="5" fit-margin-bottom="5" fit-margin-left="5" fit-margin-right="5"/>
  <defs id="defs8185">
    <rect id="e" x="0" y="0" width="26" height="37"/>
  </defs>
  <g id="alkali metals" style="fill:#ff6666" transform="translate(5,5)">
    <use id="Li" x="0" y="38.5" xlink:href="#e" width="900" height="270"/>
    <use id="Na" x="0" y="77" xlink:href="#e" width="900" height="270"/>
    <use id="K" x="0" y="115.5" xlink:href="#e" width="900" height="270"/>
    <use id="Rb" x="0" y="154" xlink:href="#e" width="900" height="270"/>
    <use id="Cs" x="0" y="192.5" xlink:href="#e" width="900" height="270"/>
    <use id="Fr" x="0" y="231" xlink:href="#e" width="900" height="270"/>
  </g>
  <g id="alkali earth metals" style="fill:#ffdead" transform="translate(5,5)">
    <use id="Be" x="28" y="38.5" xlink:href="#e" width="900" height="270"/>
    <use id="Mg" x="28" y="77" xlink:href="#e" width="900" height="270"/>
    <use id="Ca" x="28" y="115.5" xlink:href="#e" width="900" height="270"/>
    <use id="Sr" x="28" y="154" xlink:href="#e" width="900" height="270"/>
    <use id="Ba" x="28" y="192.5" xlink:href="#e" width="900" height="270"/>
    <use id="Ra" x="28" y="231" xlink:href="#e" width="900" height="270"/>
  </g>
   <g id="polyatomic nonmetals" style="fill:#9fff9f" transform="translate(5,5)">
    <use id="C" x="756" y="38.5" xlink:href="#e" width="900" height="270"/>
    <use id="P" x="784" y="77" xlink:href="#e" width="900" height="270"/>
    <use id="S" x="812" y="77" xlink:href="#e" width="900" height="270"/>
    <use id="Se" x="812" y="115.5" xlink:href="#e" width="900" height="270"/>
  </g>
  <g id="diatomic nonmetals" style="fill:#e7ff8f" transform="translate(5,5)">
    <use id="H" x="0" y="0" xlink:href="#e" width="900" height="270"/>
    <use id="N" x="784" y="38.5" xlink:href="#e" width="900" height="270"/>
    <use id="O" x="812" y="38.5" xlink:href="#e" width="900" height="270"/>
    <use id="F" x="840" y="38.5" xlink:href="#e" width="900" height="270"/>
    <use id="Cl" x="840" y="77" xlink:href="#e" width="900" height="270"/>
    <use id="Br" x="840" y="115.5" xlink:href="#e" width="900" height="270"/>
    <use id="I" x="840" y="154" xlink:href="#e" width="900" height="270"/>
  </g>
  <g id="metalloids" style="fill:#cccc99" transform="translate(5,5)">
    <use id="B" x="728" y="38.5" xlink:href="#e" width="900" height="270"/>
    <use id="Si" x="756" y="77" xlink:href="#e" width="900" height="270"/>
    <use id="Ge" x="756" y="115.5" xlink:href="#e" width="900" height="270"/>
    <use id="As" x="784" y="115.5" xlink:href="#e" width="900" height="270"/>
    <use id="Sb" x="784" y="154" xlink:href="#e" width="900" height="270"/>
    <use id="Te" x="812" y="154" xlink:href="#e" width="900" height="270"/>
    <use id="At" x="840" y="192.5" xlink:href="#e" width="900" height="270"/>
  </g>
  <g id="noble gases" style="fill:#c0ffff" transform="translate(5,5)">
    <use id="He" x="868" y="0" xlink:href="#e" width="900" height="270"/>
    <use id="Ne" x="868" y="38.5" xlink:href="#e" width="900" height="270"/>
    <use id="Ar" x="868" y="77" xlink:href="#e" width="900" height="270"/>
    <use id="Kr" x="868" y="115.5" xlink:href="#e" width="900" height="270"/>
    <use id="Xe" x="868" y="154" xlink:href="#e" width="900" height="270"/>
    <use id="Rn" x="868" y="192.5" xlink:href="#e" width="900" height="270"/>
  </g>
  <g id="post-transition metals" style="fill:#cccccc;" transform="translate(5,5)">
    <use id="Po" x="812" y="192.5" xlink:href="#e" width="900" height="270"/>
    <use id="Al" x="728" y="77" xlink:href="#e" width="900" height="270"/>
    <use id="Ga" x="728" y="115.5" xlink:href="#e" width="900" height="270"/>
    <use id="In" x="728" y="154" xlink:href="#e" width="900" height="270"/>
    <use id="Sn" x="756" y="154" xlink:href="#e" width="900" height="270"/>
    <use id="Tl" x="728" y="192.5" xlink:href="#e" width="900" height="270"/>
    <use id="Pb" x="756" y="192.5" xlink:href="#e" width="900" height="270"/>
    <use id="Bi" x="784" y="192.5" xlink:href="#e" width="900" height="270"/>
	<use id="Fl" x="756" y="231" xlink:href="#e" width="900" height="270"/>
  </g>
  <g id="transition metals" style="fill:#ffc0c0" transform="translate(5,5)">
    <use id="Sc" x="448" y="115.5" xlink:href="#e" width="900" height="270"/>
    <use id="Ti" x="476" y="115.5" xlink:href="#e" width="900" height="270"/>
    <use id="V" x="504" y="115.5" xlink:href="#e" width="900" height="270"/>
    <use id="Cr" x="532" y="115.5" xlink:href="#e" width="900" height="270"/>
    <use id="Mn" x="560" y="115.5" xlink:href="#e" width="900" height="270"/>
    <use id="Fe" x="588" y="115.5" xlink:href="#e" width="900" height="270"/>
    <use id="Co" x="616" y="115.5" xlink:href="#e" width="900" height="270"/>
    <use id="Ni" x="644" y="115.5" xlink:href="#e" width="900" height="270"/>
    <use id="Cu" x="672" y="115.5" xlink:href="#e" width="900" height="270"/>
    <use id="Zn" x="700" y="115.5" xlink:href="#e" width="900" height="270"/>
    <use id="Y" x="448" y="154" xlink:href="#e" width="900" height="270"/>
    <use id="Zr" x="476" y="154" xlink:href="#e" width="900" height="270"/>
    <use id="Nb" x="504" y="154" xlink:href="#e" width="900" height="270"/>
    <use id="Mo" x="532" y="154" xlink:href="#e" width="900" height="270"/>
    <use id="Tc" x="560" y="154" xlink:href="#e" width="900" height="270"/>
    <use id="Ru" x="588" y="154" xlink:href="#e" width="900" height="270"/>
    <use id="Rh" x="616" y="154" xlink:href="#e" width="900" height="270"/>
    <use id="Pd" x="644" y="154" xlink:href="#e" width="900" height="270"/>
    <use id="Ag" x="672" y="154" xlink:href="#e" width="900" height="270"/>
    <use id="Cd" x="700" y="154" xlink:href="#e" width="900" height="270"/>
    <use id="Hf" x="476" y="192.5" xlink:href="#e" width="900" height="270"/>
    <use id="Ta" x="504" y="192.5" xlink:href="#e" width="900" height="270"/>
    <use id="W" x="532" y="192.5" xlink:href="#e" width="900" height="270"/>
    <use id="Re" x="560" y="192.5" xlink:href="#e" width="900" height="270"/>
    <use id="Os" x="588" y="192.5" xlink:href="#e" width="900" height="270"/>
    <use id="Ir" x="616" y="192.5" xlink:href="#e" width="900" height="270"/>
    <use id="Pt" x="644" y="192.5" xlink:href="#e" width="900" height="270"/>
    <use id="Au" x="672" y="192.5" xlink:href="#e" width="900" height="270"/>
    <use id="Hg" x="700" y="192.5" xlink:href="#e" width="900" height="270"/>
    <use id="Rf" x="476" y="231" xlink:href="#e" width="900" height="270"/>
    <use id="Db" x="504" y="231" xlink:href="#e" width="900" height="270"/>
    <use id="Sg" x="532" y="231" xlink:href="#e" width="900" height="270"/>
    <use id="Bh" x="560" y="231" xlink:href="#e" width="900" height="270"/>
    <use id="Hs" x="588" y="231" xlink:href="#e" width="900" height="270"/>
    <use id="Cn" x="700" y="231" xlink:href="#e" width="900" height="270"/>
  </g>
  <g id="lanthanides" style="fill:#ffbfff" transform="translate(5,5)">
    <use id="La" x="56" y="192.5" xlink:href="#e" width="900" height="270"/>
    <use id="Ce" x="84" y="192.5" xlink:href="#e" width="900" height="270"/>
    <use id="Pr" x="112" y="192.5" xlink:href="#e" width="900" height="270"/>
    <use id="Nd" x="140" y="192.5" xlink:href="#e" width="900" height="270"/>
    <use id="Pm" x="168" y="192.5" xlink:href="#e" width="900" height="270"/>
    <use id="Sm" x="196" y="192.5" xlink:href="#e" width="900" height="270"/>
    <use id="Eu" x="224" y="192.5" xlink:href="#e" width="900" height="270"/>
    <use id="Gd" x="252" y="192.5" xlink:href="#e" width="900" height="270"/>
    <use id="Tb" x="280" y="192.5" xlink:href="#e" width="900" height="270"/>
    <use id="Dy" x="308" y="192.5" xlink:href="#e" width="900" height="270"/>
    <use id="Ho" x="336" y="192.5" xlink:href="#e" width="900" height="270"/>
    <use id="Er" x="364" y="192.5" xlink:href="#e" width="900" height="270"/>
    <use id="Tm" x="392" y="192.5" xlink:href="#e" width="900" height="270"/>
    <use id="Yb" x="420" y="192.5" xlink:href="#e" width="900" height="270"/>
    <use id="Lu" x="448" y="192.5" xlink:href="#e" width="900" height="270"/>
  </g>
  <g id="actinides" style="fill:#ff99cc" transform="translate(5,5)">
    <use id="Ac" x="56" y="231" xlink:href="#e" width="900" height="270"/>
    <use id="Th" x="84" y="231" xlink:href="#e" width="900" height="270"/>
    <use id="Pa" x="112" y="231" xlink:href="#e" width="900" height="270"/>
    <use id="U" x="140" y="231" xlink:href="#e" width="900" height="270"/>
    <use id="Np" x="168" y="231" xlink:href="#e" width="900" height="270"/>
    <use id="Pu" x="196" y="231" xlink:href="#e" width="900" height="270"/>
    <use id="Am" x="224" y="231" xlink:href="#e" width="900" height="270"/>
    <use id="Cm" x="252" y="231" xlink:href="#e" width="900" height="270"/>
    <use id="Bk" x="280" y="231" xlink:href="#e" width="900" height="270"/>
    <use id="Cf" x="308" y="231" xlink:href="#e" width="900" height="270"/>
    <use id="Es" x="336" y="231" xlink:href="#e" width="900" height="270"/>
    <use id="Fm" x="364" y="231" xlink:href="#e" width="900" height="270"/>
    <use id="Md" x="392" y="231" xlink:href="#e" width="900" height="270"/>
    <use id="No" x="420" y="231" xlink:href="#e" width="900" height="270"/>
    <use id="Lr" x="448" y="231" xlink:href="#e" width="900" height="270"/>
  </g>
  <g id="unknown chemical properties" style="fill:#e8e8e8" transform="translate(5,5)">
    <use id="Mt" x="616" y="231" xlink:href="#e" width="900" height="270"/>
    <use id="Ds" x="644" y="231" xlink:href="#e" width="900" height="270"/>
    <use id="Rg" x="672" y="231" xlink:href="#e" width="900" height="270"/>
    <use id="Uut" x="728" y="231" xlink:href="#e" width="900" height="270"/>
    <use id="Uup" x="784" y="231" xlink:href="#e" width="900" height="270"/>
    <use id="Lv" x="812" y="231" xlink:href="#e" width="900" height="270"/>
    <use id="Uus" x="840" y="231" xlink:href="#e" width="900" height="270"/>
    <use id="Uuo" x="868" y="231" xlink:href="#e" width="900" height="270"/>
  </g>
</svg>